<?xml version="1.0" standalone="no"?>
<!DOCTYPE svg PUBLIC "-//W3C//DTD SVG 20010904//EN"
 "http://www.w3.org/TR/2001/REC-SVG-20010904/DTD/svg10.dtd">
<svg version="1.0" xmlns="http://www.w3.org/2000/svg"
 width="1080.000000pt" height="1080.000000pt" viewBox="0 0 1080.000000 1080.000000"
 preserveAspectRatio="xMidYMid meet">
<metadata>
Created by potrace 1.14, written by Peter Selinger 2001-2017
</metadata>
<g transform="translate(0.000000,1080.000000) scale(0.100000,-0.100000)"
fill="#000000" stroke="none">
<path d="M5039 7934 l-316 -316 -124 40 c-68 22 -151 48 -184 57 -33 10 -90
30 -126 46 -129 56 -118 52 -214 73 -87 19 -180 20 -267 1 -97 -20 -154 -59
-191 -130 -28 -55 -26 -109 5 -175 14 -30 29 -70 33 -89 15 -73 142 -169 303
-232 51 -20 65 -28 42 -25 -130 19 -133 18 -215 -12 -87 -32 -106 -55 -59 -72
18 -7 48 -8 88 -2 34 6 63 8 65 6 2 -2 -13 -11 -35 -20 -21 -9 -54 -22 -71
-30 -34 -13 -43 -37 -20 -51 6 -4 59 -8 117 -9 96 -1 226 -20 159 -23 -27 -1
-93 -40 -149 -89 -33 -29 -34 -31 -17 -48 15 -16 21 -17 50 -6 23 9 -58 -78
-290 -310 -178 -178 -323 -329 -323 -337 0 -8 140 -153 310 -323 171 -170 310
-311 310 -314 0 -2 -82 -4 -182 -4 l-183 0 -598 597 -597 597 -316 -316 -316
-317 -71 -12 c-118 -19 -211 -55 -314 -119 -19 -13 -26 -10 -80 31 -32 24 -60
46 -63 49 -3 3 -44 32 -91 64 -59 39 -94 57 -110 54 -23 -3 -24 -7 -36 -133
-27 -296 -5 -447 78 -554 11 -13 19 -29 19 -36 0 -6 -171 -182 -380 -391 -209
-208 -380 -383 -379 -389 0 -5 463 -473 1029 -1040 l1030 -1030 565 565 565
565 2 -373 3 -373 703 1 702 0 0 -110 0 -110 -286 -2 -286 -3 0 -85 0 -85 996
-3 996 -2 0 90 0 90 -275 0 -275 0 0 110 0 110 705 0 705 0 0 380 c0 209 3
380 6 380 3 0 263 -257 577 -570 l571 -571 90 88 c50 48 93 92 97 97 4 4 426
428 939 941 513 514 931 938 929 944 -2 6 -317 325 -700 708 l-697 698 -7 60
c-9 76 -37 141 -65 150 -23 7 -80 -11 -80 -26 0 -28 -48 14 -264 231 -131 132
-242 240 -245 240 -3 0 -274 -268 -600 -595 l-595 -595 -175 0 -176 0 318 317
c174 174 316 321 314 326 -1 5 -197 203 -435 441 -238 238 -432 436 -432 440
0 4 26 38 58 74 83 96 150 201 188 295 35 86 33 112 -10 102 -11 -3 -28 -1
-36 4 -12 8 -13 16 -3 41 15 40 6 45 -92 41 -123 -4 -255 -34 -452 -103 l-82
-29 -381 380 c-209 210 -382 381 -383 381 -1 0 -144 -142 -318 -316z m663
-141 l337 -338 -112 -67 c-113 -68 -214 -109 -298 -123 -24 -4 -72 -16 -107
-28 -72 -24 -77 -32 -70 -131 3 -49 10 -74 32 -106 l28 -43 -21 -126 c-42
-249 -22 -461 58 -626 53 -108 62 -119 279 -339 103 -105 208 -217 231 -248
46 -61 74 -73 85 -35 17 58 18 224 2 299 -9 42 -16 84 -16 92 0 8 20 41 45 74
48 64 88 160 83 202 l-3 25 -170 -1 c-93 0 -187 -6 -208 -12 l-37 -11 -25 49
c-27 53 -33 99 -12 101 27 3 53 -3 75 -17 12 -8 27 -12 32 -9 6 3 10 43 10 89
0 160 32 202 243 323 149 85 155 88 176 69 22 -20 60 -18 72 4 5 8 22 46 39
84 l32 69 49 -49 c120 -118 746 -743 763 -763 l20 -22 -319 -319 -320 -320
-1318 0 -1317 0 -320 321 -321 321 351 348 351 349 64 6 64 7 58 -45 c70 -55
107 -70 151 -62 30 6 81 -7 147 -36 11 -5 45 -15 75 -23 48 -12 52 -14 30 -21
-34 -11 -160 -134 -160 -156 0 -17 24 -37 43 -37 5 0 23 -8 42 -18 30 -16 32
-19 17 -30 -26 -20 -3 -48 43 -52 27 -2 48 4 76 22 21 14 50 26 65 26 25 0 26
-2 19 -37 -4 -24 -21 -53 -44 -78 -21 -22 -42 -47 -47 -56 -19 -34 -76 -92
-82 -82 -4 5 -45 22 -92 37 -137 45 -331 48 -382 6 l-23 -18 43 -42 c23 -24
41 -43 40 -44 -28 -11 -64 -38 -66 -50 -8 -38 75 -105 150 -120 25 -6 26 -8
15 -36 -15 -39 -5 -48 71 -61 76 -14 187 0 293 34 41 14 96 30 124 37 55 13
193 81 235 116 14 13 39 26 53 29 28 7 125 108 149 154 7 14 16 28 19 31 19
16 60 106 78 171 40 143 20 314 -52 453 -30 58 -108 145 -175 194 -76 56 -271
142 -321 142 -11 0 -22 4 -25 9 -3 5 -30 14 -58 20 -92 20 -127 33 -147 55
l-20 22 96 98 96 98 96 -21 c53 -11 125 -24 161 -27 37 -4 94 -19 134 -36 46
-20 72 -26 78 -20 37 37 -90 100 -232 116 -99 12 -180 28 -180 36 0 9 531 540
539 540 4 0 158 -152 343 -337z m-1672 -2 l45 -8 -60 -2 c-83 -2 -183 -25
-241 -55 -56 -29 -114 -80 -114 -102 0 -7 -4 -14 -10 -14 -16 0 -12 22 11 64
31 59 55 77 149 112 39 15 151 17 220 5z m77 -17 c-3 -3 -12 -4 -19 -1 -8 3
-5 6 6 6 11 1 17 -2 13 -5z m78 -59 c80 -15 285 -69 320 -85 11 -5 53 -18 93
-30 39 -11 72 -24 72 -28 0 -5 -43 -50 -95 -101 -103 -102 -103 -102 -182 -64
-18 8 -36 12 -42 9 -5 -4 -29 1 -52 10 -41 17 -42 17 -60 -7 l-19 -24 -22 27
c-37 43 -65 52 -109 38 -32 -11 -49 -10 -111 5 -40 9 -78 21 -84 26 -5 4 -30
10 -53 11 -48 3 -61 -10 -36 -35 8 -9 15 -20 15 -26 0 -6 4 -11 9 -11 5 0 11
-6 14 -14 7 -17 -60 26 -117 76 -37 32 -38 36 -31 76 12 73 99 133 225 155 57
10 193 6 265 -8z m2449 -181 c24 -23 20 -53 -9 -66 -45 -20 -75 31 -39 66 8 9
19 16 24 16 5 0 16 -7 24 -16z m-2764 -193 c74 -38 127 -81 100 -81 -26 0
-164 76 -206 113 -54 47 -57 66 -6 32 20 -14 71 -42 112 -64z m143 65 c19 -5
27 -13 27 -27 0 -12 9 -34 21 -50 17 -24 27 -29 64 -29 35 0 48 5 65 27 19 24
27 27 83 26 35 0 73 -6 85 -12 13 -7 32 -9 43 -6 11 4 33 -2 53 -14 18 -12 42
-21 52 -21 11 0 35 -11 55 -24 19 -13 52 -31 72 -39 44 -19 52 -44 44 -131 -7
-70 -60 -240 -85 -274 -17 -22 -20 -23 -58 -10 -42 15 -53 23 -183 139 -153
137 -401 402 -401 429 0 21 8 30 23 25 7 -2 24 -6 40 -9z m2507 -41 c16 -8 45
-15 65 -15 19 0 35 -4 35 -10 0 -13 -51 -13 -86 0 -29 12 -64 46 -64 64 0 6 5
3 11 -7 5 -9 23 -24 39 -32z m-2396 -14 c-2 -3 -12 3 -22 13 -16 17 -16 18 5
5 12 -7 20 -15 17 -18z m2349 -36 c8 -7 26 -17 41 -21 14 -3 26 -10 26 -16 0
-5 -10 -6 -22 -2 -26 8 -85 54 -69 54 5 0 16 -7 24 -15z m-283 -35 c-14 -11
-46 -31 -71 -45 -81 -44 -298 -271 -299 -313 0 -4 -18 -41 -40 -82 -123 -230
-124 -235 -123 -350 1 -104 0 -104 -12 -55 -7 28 -13 77 -14 110 0 49 5 69 29
110 16 28 56 104 88 170 64 131 119 224 161 269 45 49 163 140 226 173 68 36
92 42 55 13z m-185 -10 c11 -18 -5 -31 -21 -16 -8 8 -14 17 -14 20 0 10 28 7
35 -4z m-138 -41 c2 -16 -1 -19 -9 -11 -5 5 -7 15 -4 21 10 15 12 14 13 -10z
m-147 2 c0 -6 -5 -13 -11 -16 -15 -10 -131 -36 -136 -32 -3 4 119 53 140 56 4
0 7 -3 7 -8z m-885 -48 c44 -14 97 -32 119 -41 l38 -17 -6 -58 c-6 -60 -17
-88 -79 -198 -59 -105 -71 -112 -166 -107 -96 6 -117 18 -96 57 55 100 101
317 81 380 -7 21 -6 23 10 17 11 -5 55 -19 99 -33z m816 -37 c-6 -7 -24 -16
-39 -19 -15 -3 -36 -8 -47 -12 -11 -3 3 5 30 19 58 28 72 31 56 12z m192 -16
c-3 -11 -9 -20 -14 -20 -10 0 -12 24 -2 33 13 13 21 7 16 -13z m-1718 -20 c7
-12 -2 -12 -30 0 -19 8 -19 9 2 9 12 1 25 -3 28 -9z m1625 -9 c0 -6 -4 -12
-10 -16 -5 -3 -7 -12 -3 -20 3 -8 0 -15 -6 -15 -12 0 -15 42 -4 53 9 10 23 8
23 -2z m-624 -57 c38 -31 70 -61 71 -68 6 -26 -215 -257 -245 -256 -4 0 -18 9
-31 19 l-25 19 26 31 c48 56 118 228 118 288 0 13 4 23 9 23 5 0 39 -25 77
-56z m-827 -101 c31 -28 72 -65 91 -82 60 -52 9 -36 -75 24 -42 30 -85 55 -95
55 -13 0 -17 5 -14 14 3 8 -1 20 -9 27 -12 12 -12 15 2 26 18 13 17 14 100
-64z m973 -61 c22 -40 58 -140 58 -162 0 -4 -37 -10 -82 -14 -69 -5 -134 -18
-248 -47 -32 -8 -13 20 48 70 35 29 90 86 124 127 33 41 64 74 67 74 3 0 18
-21 33 -48z m321 28 c-3 -12 -8 -19 -11 -16 -5 6 5 36 12 36 2 0 2 -9 -1 -20z
m91 -36 c17 -7 22 -44 6 -44 -5 0 -10 7 -10 15 0 7 -8 19 -17 24 -20 11 -4 15
21 5z m-77 -164 c8 -12 9 -21 3 -25 -15 -9 -30 4 -30 26 0 24 12 24 27 -1z
m-737 -10 c13 -9 13 -11 0 -20 -13 -8 -47 -5 -60 7 -5 5 21 23 35 23 6 0 17
-5 25 -10z m459 -49 c23 -15 9 -143 -25 -228 -25 -64 -44 -92 -44 -64 0 6 -25
37 -55 69 -48 52 -65 63 -136 88 -74 26 -80 30 -77 53 3 23 12 29 73 49 104
34 237 50 264 33z m-639 -5 c0 -2 -8 -10 -17 -17 -16 -13 -17 -12 -4 4 13 16
21 21 21 13z m-1760 -591 l560 -559 0 -831 0 -830 -565 -565 -566 -564 -980
980 -980 980 362 359 c198 198 370 368 380 378 27 24 24 39 -18 89 -20 23 -50
72 -67 108 -29 60 -31 74 -34 190 -3 139 8 272 23 276 12 4 185 -124 199 -148
8 -13 4 -25 -16 -54 -21 -29 -25 -42 -17 -56 16 -30 38 -21 112 47 136 127
300 182 502 171 187 -11 319 -63 432 -172 46 -44 74 -64 88 -62 32 5 30 43 -4
79 -17 17 -28 35 -25 40 10 17 215 161 221 156 9 -10 22 -154 22 -252 1 -144
-32 -243 -108 -325 -43 -48 -48 -59 -29 -78 21 -21 43 -13 79 26 106 114 114
145 113 437 0 132 -3 252 -7 268 -14 54 -68 30 -265 -121 l-84 -63 -76 40
c-93 48 -174 76 -267 92 -39 6 -71 12 -72 14 -6 4 512 515 520 512 4 -1 260
-254 567 -562z m2012 540 c-5 -30 -7 -30 -38 -6 l-25 20 23 4 c44 8 45 7 40
-18z m3612 -189 c119 -118 216 -220 216 -226 0 -16 -48 -108 -82 -157 -16 -24
-35 -61 -43 -83 -8 -23 -18 -46 -22 -53 -13 -21 -22 61 -22 205 -1 145 -9 178
-46 198 -51 27 -108 -14 -170 -125 -37 -66 -92 -206 -119 -300 -19 -65 -81
-195 -118 -247 -56 -79 -96 -165 -146 -313 -55 -160 -136 -503 -126 -529 3 -7
69 -37 147 -69 474 -189 537 -217 495 -217 -9 0 -30 -16 -46 -35 -62 -69 -56
-163 18 -332 29 -65 56 -126 61 -135 5 -10 9 -59 9 -110 0 -100 -32 -230 -68
-277 -19 -23 -19 -22 -14 82 11 244 -58 415 -230 569 -192 172 -205 187 -212
249 -9 68 -25 93 -131 190 -44 41 -105 97 -135 126 -68 65 -90 69 -90 13 0
-33 -14 -60 -90 -172 -49 -73 -90 -143 -90 -155 0 -35 19 -76 52 -110 24 -25
43 -34 82 -39 91 -13 113 -58 80 -171 -18 -63 -19 -81 -7 -521 7 -304 9 -325
27 -338 26 -19 71 -18 90 2 13 12 16 40 16 132 1 105 2 115 15 98 11 -14 15
-47 15 -117 0 -75 4 -101 16 -113 18 -19 75 -21 92 -4 17 17 15 190 -3 258
-18 66 -19 160 -4 231 18 82 120 182 152 150 9 -9 -1 -22 -36 -52 -71 -61 -81
-86 -81 -205 1 -87 4 -108 27 -158 15 -33 38 -69 52 -82 30 -28 31 -34 6 -27
-26 7 -71 -38 -71 -70 0 -50 25 -58 178 -58 153 0 164 3 201 57 14 20 44 43
75 57 130 60 200 199 213 422 7 131 -4 176 -77 332 -61 127 -68 160 -42 193
27 35 35 66 22 90 -6 11 -9 20 -7 20 5 0 52 -19 122 -49 22 -10 74 -30 115
-46 41 -16 79 -32 85 -37 25 -22 41 -7 52 50 24 124 62 219 122 300 l31 42
104 0 c58 0 107 4 111 9 3 5 21 7 40 4 20 -3 41 -1 48 6 8 6 16 8 20 5 3 -3
41 4 84 16 138 37 226 104 275 208 26 55 29 71 24 115 l-7 52 241 -240 c132
-132 240 -244 240 -249 0 -17 -1944 -1946 -1958 -1944 -7 2 -269 259 -582 572
l-570 569 0 803 0 802 573 575 c314 316 575 575 578 576 4 0 104 -95 223 -213z
m-3711 107 c-7 -2 -21 -2 -30 0 -10 3 -4 5 12 5 17 0 24 -2 18 -5z m66 -12
c-16 -13 -27 -16 -34 -10 -12 12 11 29 39 29 16 0 15 -2 -5 -19z m142 -29 c62
-23 103 -56 150 -121 33 -45 37 -57 27 -75 -14 -27 -97 -126 -106 -126 -4 0
-18 26 -32 58 -28 65 -87 127 -154 160 -25 13 -49 28 -52 34 -10 16 73 88 100
87 11 0 42 -8 67 -17z m-68 -197 c29 -26 60 -72 76 -113 12 -29 12 -34 -5 -47
-31 -23 -135 -78 -184 -97 -77 -30 -86 -27 -120 49 -17 37 -33 77 -36 88 -5
22 22 61 107 153 l39 43 50 -28 c28 -15 60 -37 73 -48z m-502 -62 c41 -8 100
-27 129 -42 52 -25 55 -30 87 -106 18 -44 33 -83 33 -87 0 -8 -91 -35 -168
-49 -31 -6 -81 -8 -112 -4 l-55 8 53 23 c28 13 52 27 52 31 -1 23 -23 31 -103
35 -67 3 -94 9 -114 24 -36 27 -38 38 -9 57 22 15 27 15 54 1 45 -22 189 -41
203 -27 22 22 2 43 -40 43 -54 0 -157 34 -210 69 -47 31 -45 37 14 43 42 5 97
-1 186 -19z m1326 -25 c-3 -8 -6 -5 -6 6 -1 11 2 17 5 13 3 -3 4 -12 1 -19z
m298 2 c-16 -4 -41 -8 -55 -8 l-25 0 25 8 c14 4 39 8 55 8 l30 0 -30 -8z
m-112 -7 c-7 -2 -19 -2 -25 0 -7 3 -2 5 12 5 14 0 19 -2 13 -5z m2929 -242 c1
-77 0 -142 -3 -145 -9 -9 -149 58 -149 71 0 6 16 41 34 76 19 36 42 92 52 124
9 32 21 67 27 78 19 35 35 -52 39 -204z m-398 122 c3 -43 11 -130 17 -193 20
-208 22 -263 9 -333 -12 -59 -11 -70 2 -83 12 -13 20 -14 36 -5 28 15 37 76
36 231 l-2 126 52 -6 c59 -7 152 -44 234 -91 99 -59 302 -280 302 -330 0 -27
-118 -129 -185 -159 -33 -15 -100 -35 -150 -45 -153 -28 -179 -51 -164 -140 5
-28 11 -75 15 -106 6 -67 39 -123 92 -159 33 -22 46 -25 120 -23 45 1 82 0 82
-3 0 -3 -9 -19 -21 -35 -28 -40 -85 -167 -94 -209 -14 -73 -8 -71 -88 -38 -40
16 -155 63 -257 105 -102 42 -207 84 -235 95 -27 10 -63 25 -80 33 -16 7 -82
34 -146 60 -64 25 -123 52 -132 58 -12 10 -11 29 13 142 60 285 138 495 239
642 44 64 108 212 137 312 31 111 26 51 -12 -120 -57 -261 -57 -385 -1 -377
20 3 22 10 28 103 4 55 18 154 33 220 66 295 95 405 107 405 4 0 10 -35 13
-77z m-2704 57 c0 -5 -4 -10 -10 -10 -5 0 -10 5 -10 10 0 6 5 10 10 10 6 0 10
-4 10 -10z m198 -7 c-10 -2 -26 -2 -35 0 -10 3 -2 5 17 5 19 0 27 -2 18 -5z
m-214 -28 c-7 -16 -51 -32 -61 -21 -4 3 3 6 14 6 11 0 26 7 33 15 16 19 21 19
14 0z m3846 -783 c-10 -4 -65 11 -105 28 -11 4 -56 20 -100 35 -167 56 -160
51 -231 147 -37 48 -101 121 -143 161 l-77 72 4 107 4 108 329 -327 c181 -180
325 -329 319 -331z m-3744 606 l29 -33 -35 30 c-19 17 -37 31 -39 33 -2 1 0 2
5 2 6 0 23 -15 40 -32z m95 15 c13 -17 13 -17 -6 -3 -11 8 -22 16 -24 17 -2 2
0 3 6 3 6 0 17 -8 24 -17z m4 -96 c19 -18 22 -25 10 -19 -11 6 -33 25 -50 43
-33 36 -8 21 40 -24z m869 -583 c15 -6 16 -93 16 -990 l0 -984 -1555 0 -1555
0 0 983 c0 541 3 987 6 990 9 8 3066 9 3088 1z m2687 -80 c-11 -15 -21 -24
-21 -20 0 12 33 57 37 52 3 -3 -4 -17 -16 -32z m131 -5 c10 -13 21 -41 24 -61
6 -34 5 -35 -21 -31 -14 3 -37 0 -49 -7 -29 -15 -66 1 -66 29 0 30 64 104 84
98 6 -2 18 -14 28 -28z m-158 -59 c-4 -20 -1 -39 10 -55 17 -25 17 -25 -4 -13
-23 15 -29 45 -15 86 8 24 14 12 9 -18z m124 -115 c31 -35 27 -44 -5 -13 -16
14 -35 28 -43 31 -10 4 -9 6 6 6 11 1 30 -10 42 -24z m-445 -192 c-13 -2 -35
-2 -50 0 -16 2 -5 4 22 4 28 0 40 -2 28 -4z"/>
<path d="M6584 7515 c-8 -19 3 -35 25 -35 24 0 30 8 24 31 -6 22 -41 26 -49 4z"/>
<path d="M1425 5612 c-34 -7 -45 -23 -45 -63 0 -61 43 -86 104 -58 68 31 16
137 -59 121z"/>
<path d="M2090 5591 c-15 -29 -12 -77 6 -95 22 -23 80 -20 104 4 45 45 10 110
-60 110 -29 0 -42 -5 -50 -19z"/>
<path d="M1720 5320 c-30 -10 -56 -23 -58 -29 -2 -6 -4 -13 -5 -17 -1 -3 39
-7 88 -8 62 -1 100 -7 123 -19 17 -10 32 -19 32 -21 0 -3 -33 -2 -74 1 -116 9
-223 -23 -301 -90 -32 -28 -38 -40 -42 -83 -7 -66 21 -121 96 -192 75 -70 122
-82 121 -29 -1 14 -17 35 -46 57 -141 110 -135 201 16 250 173 56 420 -11 420
-114 0 -33 -50 -116 -70 -116 -5 0 -17 -12 -26 -26 -16 -23 -16 -26 0 -42 15
-15 19 -15 62 8 89 48 156 163 138 237 -15 62 -34 84 -100 114 -35 16 -69 29
-76 29 -25 0 -148 52 -148 62 0 16 115 2 182 -22 97 -34 148 -21 70 19 -103
53 -295 67 -402 31z"/>
<path d="M1642 5077 c-27 -28 -28 -57 -4 -86 l17 -22 28 27 c24 22 28 32 23
57 -6 28 -20 46 -37 47 -3 0 -15 -10 -27 -23z"/>
<path d="M1977 5073 c-12 -11 -8 -68 5 -81 22 -22 57 -14 64 13 11 45 -3 75
-35 75 -15 0 -31 -3 -34 -7z"/>
<path d="M3171 4968 c-11 -13 -40 -52 -64 -88 -76 -112 -132 -132 -253 -89
-91 31 -178 24 -278 -24 -116 -56 -141 -43 -172 89 -24 104 -21 98 -47 82 -12
-8 -37 -36 -54 -62 -29 -43 -33 -56 -33 -115 0 -74 7 -89 78 -163 56 -59 43
-69 -49 -37 -43 14 -98 23 -166 27 l-102 5 -13 -28 c-11 -24 -9 -33 16 -82 29
-54 86 -109 138 -130 14 -7 54 -15 87 -19 34 -4 64 -11 67 -16 3 -4 7 -30 9
-56 2 -26 1 -37 -2 -24 -7 36 -29 25 -62 -32 -54 -96 -141 -150 -348 -216
-133 -43 -137 -60 -13 -60 79 0 90 -2 91 -17 2 -62 20 -83 68 -83 21 0 60 -7
88 -15 39 -12 54 -22 68 -49 19 -35 18 -45 -15 -175 -21 -84 13 -201 82 -283
76 -91 141 -102 193 -32 16 23 39 47 50 54 23 15 135 41 135 31 0 -3 -12 -38
-26 -76 -14 -39 -28 -77 -31 -86 -10 -34 18 -29 62 12 52 48 94 131 119 234
10 39 24 80 32 93 15 23 43 29 60 12 6 -6 41 -10 80 -8 54 2 69 7 72 19 2 13
-9 18 -55 23 -76 9 -150 45 -201 98 -61 62 -51 66 20 8 85 -68 139 -92 213
-94 62 -1 108 13 160 48 37 26 47 38 36 49 -5 5 -35 -6 -67 -25 -51 -29 -67
-33 -125 -32 -57 1 -73 6 -117 35 -70 45 -80 74 -85 239 -4 108 -11 159 -35
255 -17 66 -34 140 -37 165 -12 76 -39 124 -96 171 -99 82 -119 92 -173 93
-45 1 -55 5 -81 35 -43 48 -64 91 -64 131 -1 64 15 68 33 7 29 -99 93 -128
207 -94 26 8 54 11 66 6 23 -8 63 -55 63 -73 0 -7 6 -21 14 -31 13 -18 18 -16
94 43 47 36 90 62 104 62 58 0 155 71 248 180 l21 25 -16 -33 c-9 -18 -49 -65
-89 -105 -82 -80 -100 -111 -110 -179 -15 -100 -9 -185 18 -245 35 -83 38
-103 22 -179 -17 -82 -4 -140 44 -189 l32 -33 -44 -6 c-80 -12 -143 -29 -166
-44 -31 -20 -47 -51 -33 -65 6 -6 11 -28 11 -48 0 -42 13 -55 52 -50 14 1 49
-9 77 -23 63 -32 118 -34 157 -4 36 27 45 41 65 97 21 57 11 86 -44 126 -35
25 -46 42 -65 100 -13 39 -26 93 -29 121 -5 46 -3 54 27 87 30 34 31 39 25 90
l-7 55 68 4 c136 8 225 86 237 207 3 34 0 48 -19 70 -21 24 -28 26 -106 26
-70 0 -89 -4 -123 -24 -41 -25 -146 -81 -152 -81 -17 0 14 38 101 123 57 56
108 112 115 124 6 12 11 51 11 86 0 49 -4 68 -18 80 -24 22 -26 21 -51 -5z"/>
<path d="M8929 5490 c-43 -23 -129 -115 -129 -138 0 -12 22 -26 73 -45 77 -29
131 -34 171 -16 35 16 40 38 18 69 -14 18 -19 39 -17 71 4 76 -40 99 -116 59z
m8 -110 c2 -22 1 -23 -21 -14 -13 5 -14 9 -5 20 16 19 24 17 26 -6z"/>
<path d="M8618 4933 c-23 -4 -28 -9 -28 -33 0 -43 23 -61 60 -48 23 8 30 16
30 37 0 25 -17 53 -29 50 -4 -1 -18 -4 -33 -6z"/>
<path d="M5282 5119 c-61 -75 -124 -199 -146 -284 -8 -33 -20 -105 -26 -160
-10 -93 -10 -103 9 -139 23 -44 120 -173 168 -222 27 -28 32 -30 38 -16 6 16
8 15 20 -2 13 -18 15 -17 41 13 32 38 54 71 117 172 43 70 47 81 47 140 0 186
-75 399 -185 526 l-32 37 -51 -65z"/>
<path d="M4550 4639 c-49 -8 -142 -35 -162 -46 -13 -7 91 -166 145 -221 60
-62 143 -123 238 -176 79 -43 114 -45 278 -17 149 26 183 39 175 66 -10 32
-31 76 -59 124 -15 24 -38 66 -52 93 -44 85 -78 112 -173 141 -147 46 -265 56
-390 36z"/>
<path d="M5874 4641 c-107 -17 -227 -61 -259 -94 -39 -40 -177 -285 -165 -292
5 -3 7 -11 4 -19 -7 -19 37 -35 163 -56 178 -31 204 -28 298 27 96 55 177 117
226 169 55 61 149 208 138 217 -2 2 -37 14 -78 26 -82 26 -238 36 -327 22z"/>
<path d="M4330 3928 c-71 -36 -80 -64 -80 -248 0 -85 5 -171 10 -191 16 -59
50 -82 125 -87 79 -5 118 9 145 53 18 29 20 50 20 214 0 201 -6 228 -60 256
-54 28 -110 29 -160 3z m94 -104 c3 -9 6 -80 6 -158 0 -143 -6 -171 -36 -159
-11 4 -14 38 -14 162 0 87 3 161 7 164 11 12 31 7 37 -9z"/>
<path d="M3997 3934 c-4 -4 -7 -126 -7 -271 l0 -264 58 3 57 3 3 118 3 117 44
0 45 0 0 50 c0 45 -2 50 -22 51 -64 3 -63 2 -66 47 l-3 42 53 0 c71 0 80 8 76
61 l-3 44 -116 3 c-63 1 -118 -1 -122 -4z"/>
<path d="M4610 3670 l0 -270 50 0 c63 0 68 10 64 120 l-3 85 36 -75 c19 -41
38 -86 42 -100 7 -22 13 -25 64 -28 63 -3 79 10 59 51 -35 72 -72 158 -72 171
0 7 6 16 13 19 47 18 64 173 25 234 -30 49 -70 63 -183 63 l-95 0 0 -270z
m178 148 c17 -17 15 -74 -4 -92 -8 -9 -25 -16 -37 -16 -20 0 -22 5 -23 60 0
58 1 60 26 60 14 0 31 -5 38 -12z"/>
<path d="M4965 3928 c-3 -7 -4 -128 -3 -268 l3 -255 39 -3 c22 -2 50 -1 64 3
22 5 24 10 19 51 -6 59 7 57 19 -3 l9 -48 45 0 45 0 11 55 11 55 4 -55 4 -55
60 0 60 0 0 265 0 265 -75 0 -74 0 -18 -84 c-29 -147 -29 -147 -52 -26 l-21
110 -73 3 c-53 2 -74 -1 -77 -10z"/>
<path d="M5766 3928 c-28 -92 -98 -435 -100 -488 l-1 -35 55 0 55 0 9 58 c8
53 10 57 36 57 25 0 27 -4 36 -57 l9 -58 60 0 c54 0 60 2 59 20 -1 20 -91 465
-100 498 -4 13 -17 17 -60 17 -35 0 -56 -4 -58 -12z m64 -283 c0 -8 -4 -15
-10 -15 -5 0 -10 7 -10 15 0 8 5 15 10 15 6 0 10 -7 10 -15z"/>
<path d="M6025 3918 c-3 -13 -4 -133 -3 -268 l3 -245 105 0 c119 0 147 11 174
70 31 66 17 177 -28 207 -6 4 -2 18 9 35 27 39 26 123 -1 160 -34 46 -79 63
-171 63 -77 0 -83 -1 -88 -22z m160 -128 c0 -25 -5 -36 -17 -38 -15 -3 -18 4
-18 38 0 34 3 41 18 38 12 -2 17 -13 17 -38z m7 -178 c24 -40 6 -102 -28 -102
-11 0 -14 16 -14 65 0 73 14 85 42 37z"/>
<path d="M6441 3918 c-5 -13 -16 -63 -25 -113 -9 -49 -29 -142 -43 -205 -15
-63 -27 -133 -27 -155 l-1 -40 49 -3 c55 -4 66 5 66 55 0 48 9 63 39 63 26 0
28 -4 37 -57 l9 -58 54 -3 c32 -2 57 1 61 8 4 6 1 39 -6 73 -7 34 -29 141 -49
237 -20 96 -38 185 -41 198 -4 20 -10 22 -59 22 -48 0 -57 -3 -64 -22z m69
-279 c0 -5 -4 -9 -10 -9 -5 0 -10 7 -10 16 0 8 5 12 10 9 6 -3 10 -10 10 -16z"/>
<path d="M5421 3591 c-8 -5 -11 -16 -8 -25 5 -13 24 -16 102 -16 78 0 97 3
102 16 9 25 -16 34 -102 34 -44 0 -86 -4 -94 -9z"/>
</g>
</svg>
